<?xml version="1.0" encoding="UTF-8"?>
<svg id="Ebene_2" xmlns="http://www.w3.org/2000/svg" version="1.1" viewBox="0 0 34.02 34.02">
  <!-- Generator: Adobe Illustrator 29.0.0, SVG Export Plug-In . SVG Version: 2.1.0 Build 186)  -->
  <defs>
    <style>
      .st0 {
        fill: #fff;
      }

      .st1 {
        fill: #1a171b;
      }
    </style>
  </defs>
  <path class="st0" d="M25.83,24.72H0V7.86h23.36c1.61,0,5.32,8.4,4.93,12.48s-2.46,4.39-2.46,4.39Z"/>
  <path d="M13.99,27.15s.07,0,.1-.01c-.06,0-.13,0-.2,0,.03,0,.06,0,.09,0Z"/>
  <path d="M14.04,20.55c-3.61,0-3.56,4.17-3.56,4.17h6.98s.19-4.17-3.41-4.17Z"/>
  <path d="M14.02,19.71c-4.54,0-4,4.3-4,4.3,0,0,.33-3.83,4-3.83s3.8,3.72,3.8,3.72c0,0,.74-4.2-3.8-4.2Z"/>
  <circle cx="14.02" cy="24.07" r="3.07"/>
  <circle class="st0" cx="14.02" cy="24.07" r="1.39"/>
  <path d="M22.77,8.75h-3.58v10.13s4.57,2.15,6.62,3.12c.33-4.64-1.69-13.27-3.04-13.25Z"/>
  <path d="M23.86,8.75s2.82,7.03,2.88,11c.4,0,.88.03,1.36.03,0-3.35-2.61-10.77-4.24-11.03Z"/>
  <path class="st1" d="M26.93,23.37c.43-.08.71-1.79.27-1.79s-.71,1.87-.27,1.79Z"/>
  <ellipse cx="12.6" cy="26.77" rx="12.6" ry=".42"/>
  <rect x="0" y="8.75" width="18.26" height="6.43"/>
  <rect x="0" y="18.25" width="18.26" height=".56"/>
</svg>