<?xml version="1.0" encoding="UTF-8"?>
<svg id="Ebene_1" data-name="Ebene 1" xmlns="http://www.w3.org/2000/svg" width="12mm" height="12mm" viewBox="0 0 34.02 34.02">
  <defs>
    <style>
      .cls-1 {
        fill: #fff;
      }

      .cls-2 {
        fill: none;
      }
    </style>
  </defs>
  <g>
    <polygon class="cls-1" points="10.35 16.38 23.16 16.38 21.41 28.73 11.68 28.73 10.35 16.38"/>
    <path d="M22.51,16.31l2.73-6.58s2.02,1.56,2.34.93-2.34-3-2.75-3c-.27,0-2.46,5.13-3.97,8.75.55,0,1.1-.05,1.66-.09Z"/>
    <rect x="10.48" y="22.78" width="12.27" height="1.12"/>
    <rect x="9.94" y="16.34" width="13.35" height="1.12"/>
    <rect x="11.31" y="28.6" width="10.6" height="1.12"/>
    <polygon points="12.89 16.46 13.97 28.52 13.51 16.3 12.89 16.46"/>
    <polygon points="16.42 16.5 16.75 28.44 17.05 16.38 16.42 16.5"/>
    <polyline points="20.54 16.46 19.62 28.48 21.41 16.42 20.85 16.39"/>
    <path class="cls-1" d="M6.98,5.11c1.72-1.41,2.87-.25,2.87-.25,0,0,1.95-1.29,2.99-.54s.62,2.12.62,2.12c0,0,2.04,1.21,1.08,2.74s-2.08.87-2.08.87c0,0-.87,2.45-2.2,2.12s-1.46-2.29-1.46-2.29c0,0-2.16.54-2.41-.67s.87-2.29.87-2.29c0,0-.75-1.46-.29-1.83Z"/>
    <path class="cls-1" d="M17.84,9.6c.78-.34,1.75.42,1.75.42,0,0,1.46-.5,1.87.67s-.58,1.5-.58,1.5c0,0,1.08,1.91-.33,2.12s-1.75-1.04-1.75-1.04c0,0-1.66.83-2,0s.62-1.5.62-1.5c0,0-.83-1.62.42-2.16Z"/>
  </g>
  <rect class="cls-2" x="0" y="0" width="34.02" height="34.02"/>
</svg>